<svg xmlns="http://www.w3.org/2000/svg" viewBox="0 0 156.75 31.41"><defs><style>.cls-1{fill:#fff;}</style></defs><title>Asset 5</title><g id="Layer_2" data-name="Layer 2"><g id="Layer_1-2" data-name="Layer 1"><path class="cls-1" d="M6.3,29.23H.24v-8.4H6.1v.61H.85v3.11H5.77v.61H.85v3.45H6.3Z"/><path class="cls-1" d="M15.92,29.23H15.3V25.35A2.16,2.16,0,0,0,15,24.12a1.07,1.07,0,0,0-.93-.38,1.76,1.76,0,0,0-1,.31,3.73,3.73,0,0,0-.9.85v4.33h-.61V25.35a3.84,3.84,0,0,0-.06-.73,1.28,1.28,0,0,0-.19-.5.85.85,0,0,0-.37-.28,1.46,1.46,0,0,0-.55-.1,1.59,1.59,0,0,0-.92.31,3.87,3.87,0,0,0-.88.85v4.33H8.05V23.28h.62v.89a3.59,3.59,0,0,1,.57-.55,2.45,2.45,0,0,1,.52-.31,1.72,1.72,0,0,1,.46-.14,2,2,0,0,1,.41,0,1.74,1.74,0,0,1,1,.27,1.55,1.55,0,0,1,.59.82,2.49,2.49,0,0,1,.48-.53,3.08,3.08,0,0,1,.52-.34,2.25,2.25,0,0,1,.54-.17,3.15,3.15,0,0,1,.52-.05q1.65,0,1.65,2.16Z"/><path class="cls-1" d="M18.42,24.17a3.29,3.29,0,0,1,.57-.56,2.29,2.29,0,0,1,.52-.32,1.92,1.92,0,0,1,.49-.14l.46,0a2.11,2.11,0,0,1,1,.23,2,2,0,0,1,.72.62,3,3,0,0,1,.44,1,5,5,0,0,1,.15,1.26,4.47,4.47,0,0,1-.17,1.31,3.12,3.12,0,0,1-.5,1,2.37,2.37,0,0,1-.75.64,2,2,0,0,1-.94.23l-.45,0a1.65,1.65,0,0,1-.47-.1A2.25,2.25,0,0,1,19,29a4.14,4.14,0,0,1-.54-.4v2.77h-.61V23.28h.61Zm0,3.72a2.59,2.59,0,0,0,1.91.88,1.64,1.64,0,0,0,.74-.17,1.48,1.48,0,0,0,.57-.49,2.37,2.37,0,0,0,.37-.8,4.13,4.13,0,0,0,.13-1.11,3,3,0,0,0-.46-1.83,1.54,1.54,0,0,0-1.31-.63,2.41,2.41,0,0,0-1.95,1.19Z"/><path class="cls-1" d="M27.09,23.76l-.19,0h-.22a1.34,1.34,0,0,0-.51.11,2.18,2.18,0,0,0-.46.28,3.88,3.88,0,0,0-.42.39A4.29,4.29,0,0,0,25,25v4.26h-.61V23.28H25v.82a3.31,3.31,0,0,1,.52-.49,2.45,2.45,0,0,1,.5-.3,1.72,1.72,0,0,1,.46-.14,2.1,2.1,0,0,1,.41,0H27l.13,0Z"/><path class="cls-1" d="M30.64,29.38a2.87,2.87,0,0,1-1.12-.21,2.35,2.35,0,0,1-.87-.62,2.7,2.7,0,0,1-.57-1,4.18,4.18,0,0,1-.2-1.33,4.08,4.08,0,0,1,.2-1.3,2.67,2.67,0,0,1,.54-1,2.22,2.22,0,0,1,.84-.61,2.47,2.47,0,0,1,1.07-.22,2.64,2.64,0,0,1,1.1.22,2.27,2.27,0,0,1,.83.61,2.8,2.8,0,0,1,.53,1,4.46,4.46,0,0,1,.18,1.31v.14H28.5a3.54,3.54,0,0,0,.22,1.05,2.27,2.27,0,0,0,.46.74,1.87,1.87,0,0,0,.65.44,2.16,2.16,0,0,0,.81.15,2.64,2.64,0,0,0,.62-.08,1.92,1.92,0,0,0,.55-.22,1.22,1.22,0,0,0,.42-.36.93.93,0,0,0,.2-.49H33a2.27,2.27,0,0,1-.3.75,2.14,2.14,0,0,1-.53.55,2.17,2.17,0,0,1-.72.34A2.91,2.91,0,0,1,30.64,29.38Zm1.91-3.6a2.54,2.54,0,0,0-.69-1.53,1.87,1.87,0,0,0-1.33-.51,2.15,2.15,0,0,0-.73.13,1.72,1.72,0,0,0-.6.37,2,2,0,0,0-.45.64,3.09,3.09,0,0,0-.25.9Z"/><path class="cls-1" d="M37.16,29.38A3,3,0,0,1,36,29.17a2.53,2.53,0,0,1-.87-.62,2.68,2.68,0,0,1-.56-1,4.18,4.18,0,0,1-.2-1.33,4.08,4.08,0,0,1,.19-1.3,2.84,2.84,0,0,1,.55-1,2.27,2.27,0,0,1,.83-.61A2.5,2.5,0,0,1,37,23.13a2.6,2.6,0,0,1,1.1.22A2.22,2.22,0,0,1,39,24a2.78,2.78,0,0,1,.52,1,4.15,4.15,0,0,1,.19,1.31v.14H35a3.53,3.53,0,0,0,.23,1.05,2.12,2.12,0,0,0,.46.74,1.71,1.71,0,0,0,.65.44,2.16,2.16,0,0,0,.81.15,2.55,2.55,0,0,0,.61-.08,2,2,0,0,0,.56-.22,1.44,1.44,0,0,0,.42-.36,1,1,0,0,0,.2-.49h.6a1.91,1.91,0,0,1-.3.75,2,2,0,0,1-.53.55,2.12,2.12,0,0,1-.71.34A3,3,0,0,1,37.16,29.38Zm1.91-3.6a2.55,2.55,0,0,0-.7-1.53A1.86,1.86,0,0,0,37,23.74a2.09,2.09,0,0,0-.72.13,1.67,1.67,0,0,0-.61.37,2.19,2.19,0,0,0-.44.64,3.09,3.09,0,0,0-.26.9Z"/><path class="cls-1" d="M41.87,24.17a3,3,0,0,1,.59-.56,2.49,2.49,0,0,1,.56-.32,2.08,2.08,0,0,1,.52-.13l.46,0q1.83,0,1.83,2.16v3.94h-.61V25.35a3,3,0,0,0-.08-.72,1.22,1.22,0,0,0-.23-.5,1,1,0,0,0-.43-.29,2.06,2.06,0,0,0-.65-.1,1.84,1.84,0,0,0-1,.3,4.13,4.13,0,0,0-1,.85v4.34h-.61V23.28h.61Z"/><path class="cls-1" d="M51.72,28.41a4.13,4.13,0,0,1-.54.51,2.1,2.1,0,0,1-.52.29,1.74,1.74,0,0,1-.48.14l-.45,0a2.25,2.25,0,0,1-1-.22,2.16,2.16,0,0,1-.72-.63,3,3,0,0,1-.44-1,5,5,0,0,1-.15-1.26A4.6,4.6,0,0,1,47.61,25a3.07,3.07,0,0,1,.5-1,2.26,2.26,0,0,1,.75-.63,2,2,0,0,1,.93-.22l.44,0a2.72,2.72,0,0,1,.46.1,2.32,2.32,0,0,1,.49.22,3.46,3.46,0,0,1,.54.39v-3h.61v8.4h-.61Zm0-3.81a3.14,3.14,0,0,0-.87-.64,2.28,2.28,0,0,0-1-.22,1.87,1.87,0,0,0-.75.16,1.63,1.63,0,0,0-.57.48,2.14,2.14,0,0,0-.36.79A4.2,4.2,0,0,0,48,26.3a3.08,3.08,0,0,0,.47,1.84,1.54,1.54,0,0,0,1.31.63,1.77,1.77,0,0,0,1-.31,3.62,3.62,0,0,0,.89-.9Z"/><path class="cls-1" d="M55,29.23h-.62V23.28H55Zm0-7.44h-.62v-1H55Z"/><path class="cls-1" d="M64.83,29.23h-.61V25.35A2.25,2.25,0,0,0,64,24.12a1.08,1.08,0,0,0-.94-.38,1.76,1.76,0,0,0-1,.31,3.73,3.73,0,0,0-.9.85v4.33h-.61V25.35a3.84,3.84,0,0,0-.06-.73,1.28,1.28,0,0,0-.2-.5.77.77,0,0,0-.36-.28,1.52,1.52,0,0,0-.56-.1,1.61,1.61,0,0,0-.92.31,4.32,4.32,0,0,0-.88.85v4.33H57V23.28h.61v.89a4.08,4.08,0,0,1,.58-.55,2.4,2.4,0,0,1,.51-.31,1.84,1.84,0,0,1,.46-.14,2.12,2.12,0,0,1,.42,0,1.73,1.73,0,0,1,1,.27,1.5,1.5,0,0,1,.59.82,2.82,2.82,0,0,1,.49-.53,3.08,3.08,0,0,1,.52-.34,2.32,2.32,0,0,1,.53-.17,3.27,3.27,0,0,1,.53-.05c1.09,0,1.64.72,1.64,2.16Z"/><path class="cls-1" d="M69.14,29.38A3,3,0,0,1,68,29.17a2.53,2.53,0,0,1-.87-.62,2.68,2.68,0,0,1-.56-1,4.18,4.18,0,0,1-.2-1.33,4.38,4.38,0,0,1,.19-1.3,2.84,2.84,0,0,1,.55-1,2.27,2.27,0,0,1,.83-.61,2.79,2.79,0,0,1,2.17,0A2.22,2.22,0,0,1,71,24a2.8,2.8,0,0,1,.53,1,4.46,4.46,0,0,1,.18,1.31v.14H67a3.54,3.54,0,0,0,.22,1.05,2.12,2.12,0,0,0,.46.74,1.79,1.79,0,0,0,.65.44,2.16,2.16,0,0,0,.81.15,2.49,2.49,0,0,0,.61-.08,2,2,0,0,0,.56-.22,1.22,1.22,0,0,0,.42-.36.93.93,0,0,0,.2-.49h.6a1.91,1.91,0,0,1-.3.75,2,2,0,0,1-.52.55,2.17,2.17,0,0,1-.72.34A2.91,2.91,0,0,1,69.14,29.38Zm1.91-3.6a2.54,2.54,0,0,0-.69-1.53A1.87,1.87,0,0,0,69,23.74a2.15,2.15,0,0,0-.73.13,1.55,1.55,0,0,0-.6.37,2,2,0,0,0-.45.64,3.09,3.09,0,0,0-.25.9Z"/><path class="cls-1" d="M73.86,24.17a3,3,0,0,1,.58-.56,2.49,2.49,0,0,1,.56-.32,2.2,2.2,0,0,1,.52-.13l.46,0q1.83,0,1.83,2.16v3.94H77.2V25.35a3.65,3.65,0,0,0-.07-.72,1.23,1.23,0,0,0-.24-.5.94.94,0,0,0-.43-.29,2,2,0,0,0-.65-.1,1.84,1.84,0,0,0-1,.3,3.91,3.91,0,0,0-1,.85v4.34h-.62V23.28h.62Z"/><path class="cls-1" d="M81.72,29.28l-.26,0H81.2a1.6,1.6,0,0,1-.64-.11.85.85,0,0,1-.37-.33,1.48,1.48,0,0,1-.16-.56,5.94,5.94,0,0,1,0-.78V23.9h-.76v-.62H80V21.73h.61v1.55h1v.62h-1v3.68a2.27,2.27,0,0,0,.06.59.72.72,0,0,0,.16.34.46.46,0,0,0,.26.15,1.37,1.37,0,0,0,.36,0h.28Z"/><path class="cls-1" d="M85.32,23.13a2.72,2.72,0,0,1,1.09.21,2.25,2.25,0,0,1,.84.62,2.63,2.63,0,0,1,.53,1,4.35,4.35,0,0,1,.18,1.3,4.19,4.19,0,0,1-.19,1.33,2.63,2.63,0,0,1-.53,1,2.29,2.29,0,0,1-.83.62,2.93,2.93,0,0,1-2.18,0,2.27,2.27,0,0,1-.83-.61,2.89,2.89,0,0,1-.54-1,4.56,4.56,0,0,1-.19-1.34,4.35,4.35,0,0,1,.19-1.31,2.88,2.88,0,0,1,.53-1,2.33,2.33,0,0,1,.84-.61A2.75,2.75,0,0,1,85.32,23.13Zm0,5.64a2.18,2.18,0,0,0,.82-.16,1.67,1.67,0,0,0,.64-.48,2.2,2.2,0,0,0,.42-.79,4.07,4.07,0,0,0,0-2.19,2.24,2.24,0,0,0-.42-.78,1.75,1.75,0,0,0-.64-.47,2.18,2.18,0,0,0-.82-.16,2.15,2.15,0,0,0-.83.16,1.67,1.67,0,0,0-.64.47,2.24,2.24,0,0,0-.42.78,4.35,4.35,0,0,0,0,2.19,2.2,2.2,0,0,0,.42.79,1.59,1.59,0,0,0,.64.48A2.15,2.15,0,0,0,85.32,28.77Z"/><path class="cls-1" d="M91.53,29.38c-1.45,0-2.25-.59-2.38-1.76h.62a1.16,1.16,0,0,0,.5.84,2.09,2.09,0,0,0,1.26.31,2.5,2.5,0,0,0,.71-.09,1.72,1.72,0,0,0,.51-.24.94.94,0,0,0,.3-.36.92.92,0,0,0,.1-.44.86.86,0,0,0-.08-.41.75.75,0,0,0-.29-.3,2.54,2.54,0,0,0-.57-.27l-.94-.27c-.32-.08-.6-.17-.85-.25a2.4,2.4,0,0,1-.64-.33,1.12,1.12,0,0,1-.38-.46,1.53,1.53,0,0,1-.13-.68,1.4,1.4,0,0,1,.56-1.13,2.05,2.05,0,0,1,.65-.3,3.24,3.24,0,0,1,.85-.11,2.93,2.93,0,0,1,1.61.36,1.37,1.37,0,0,1,.61,1.12h-.62A.82.82,0,0,0,92.5,24a2.08,2.08,0,0,0-1.08-.22,2.4,2.4,0,0,0-.62.07,1.66,1.66,0,0,0-.49.18,1,1,0,0,0-.32.3.78.78,0,0,0-.11.41.82.82,0,0,0,0,.26.69.69,0,0,0,.24.29,2.56,2.56,0,0,0,.56.29,6.94,6.94,0,0,0,1,.31,7.91,7.91,0,0,1,.89.28,2.19,2.19,0,0,1,.63.33,1.16,1.16,0,0,1,.37.46,1.44,1.44,0,0,1,.13.61,1.77,1.77,0,0,1-.16.73,1.63,1.63,0,0,1-.45.59,2.24,2.24,0,0,1-.7.39A2.93,2.93,0,0,1,91.53,29.38Z"/><path class="cls-1" d="M99.53,29.23h-.61v-8.4h.61Z"/><path class="cls-1" d="M109.71,29.23h-.62V25.35a2.25,2.25,0,0,0-.26-1.23,1.07,1.07,0,0,0-.93-.38,1.76,1.76,0,0,0-1,.31,3.73,3.73,0,0,0-.9.85v4.33h-.61V25.35a3.84,3.84,0,0,0-.06-.73,1.28,1.28,0,0,0-.19-.5.85.85,0,0,0-.37-.28,1.46,1.46,0,0,0-.55-.1,1.59,1.59,0,0,0-.92.31,4.11,4.11,0,0,0-.89.85v4.33h-.61V23.28h.61v.89a4.08,4.08,0,0,1,.58-.55,2.45,2.45,0,0,1,.52-.31,1.72,1.72,0,0,1,.46-.14,2,2,0,0,1,.41,0,1.77,1.77,0,0,1,1,.27,1.55,1.55,0,0,1,.59.82,2.49,2.49,0,0,1,.48-.53,3.08,3.08,0,0,1,.52-.34,2.25,2.25,0,0,1,.54-.17,3.15,3.15,0,0,1,.52-.05q1.65,0,1.65,2.16Z"/><path class="cls-1" d="M113.9,23.13a2.8,2.8,0,0,1,1.1.21,2.29,2.29,0,0,1,.83.62,2.63,2.63,0,0,1,.53,1,4.35,4.35,0,0,1,.18,1.3,4.51,4.51,0,0,1-.18,1.33,2.8,2.8,0,0,1-.54,1,2.21,2.21,0,0,1-.83.62,2.75,2.75,0,0,1-1.09.21,2.67,2.67,0,0,1-1.08-.21,2.22,2.22,0,0,1-.84-.61,2.72,2.72,0,0,1-.53-1,4.24,4.24,0,0,1-.2-1.34,4.35,4.35,0,0,1,.19-1.31,2.89,2.89,0,0,1,.54-1,2.3,2.3,0,0,1,.83-.61A2.75,2.75,0,0,1,113.9,23.13Zm0,5.64a2.14,2.14,0,0,0,.82-.16,1.59,1.59,0,0,0,.64-.48,2.2,2.2,0,0,0,.42-.79,4.07,4.07,0,0,0,0-2.19,2.24,2.24,0,0,0-.42-.78,1.67,1.67,0,0,0-.64-.47,2.14,2.14,0,0,0-.82-.16,2.19,2.19,0,0,0-.83.16,1.75,1.75,0,0,0-.64.47,2.24,2.24,0,0,0-.42.78,4.35,4.35,0,0,0,0,2.19,2.2,2.2,0,0,0,.42.79,1.67,1.67,0,0,0,.64.48A2.19,2.19,0,0,0,113.9,28.77Z"/><path class="cls-1" d="M118.81,24.24a2.59,2.59,0,0,1,.49-.54,2.56,2.56,0,0,1,.53-.33,2.21,2.21,0,0,1,.5-.19,2.69,2.69,0,0,1,.47-.05,2.08,2.08,0,0,1,1,.22,2,2,0,0,1,.72.62,3,3,0,0,1,.45,1,5,5,0,0,1,.15,1.26,4.46,4.46,0,0,1-.18,1.31,3.14,3.14,0,0,1-.51,1,2.18,2.18,0,0,1-.75.64,2,2,0,0,1-.93.23,3.13,3.13,0,0,1-1-.17,2.68,2.68,0,0,1-1-.61v.63h-.62v-8.4h.62Zm0,3.57a3.62,3.62,0,0,0,.86.69,1.89,1.89,0,0,0,1,.27,1.59,1.59,0,0,0,1.33-.66,3.11,3.11,0,0,0,.5-1.91,3,3,0,0,0-.47-1.83,1.54,1.54,0,0,0-1.31-.63,1.72,1.72,0,0,0-1,.33,3.79,3.79,0,0,0-.89.93Z"/><path class="cls-1" d="M125.34,29.23h-.62V23.28h.62Zm0-7.44h-.62v-1h.62Z"/><path class="cls-1" d="M128,29.23h-.61v-8.4H128Z"/><path class="cls-1" d="M130.67,29.23h-.61V23.28h.61Zm0-7.44h-.61v-1h.61Z"/><path class="cls-1" d="M136.55,28.46a5.74,5.74,0,0,1-.61.46,3.48,3.48,0,0,1-.59.28,2.37,2.37,0,0,1-.57.14,3.64,3.64,0,0,1-.57,0,2.15,2.15,0,0,1-.73-.12,1.59,1.59,0,0,1-.58-.34,1.38,1.38,0,0,1-.39-.53,1.51,1.51,0,0,1-.14-.68,1.8,1.8,0,0,1,.87-1.59,4.81,4.81,0,0,1,2.61-.57h.7a5.39,5.39,0,0,0,0-.72,1.31,1.31,0,0,0-.22-.57,1.09,1.09,0,0,0-.5-.38,2.4,2.4,0,0,0-.89-.14,2.47,2.47,0,0,0-1.26.26,1.06,1.06,0,0,0-.49.79h-.61a1.67,1.67,0,0,1,.66-1.25,2.9,2.9,0,0,1,1.69-.41,3.24,3.24,0,0,1,1.05.15,1.77,1.77,0,0,1,.71.45,1.68,1.68,0,0,1,.39.69,3,3,0,0,1,.13.93v3.88h-.62Zm0-2.29h-.92a4,4,0,0,0-2,.38,1.21,1.21,0,0,0-.66,1.1,1,1,0,0,0,.41.82,1.93,1.93,0,0,0,1.14.3,2.11,2.11,0,0,0,.61-.1,2.73,2.73,0,0,0,.55-.25,2.43,2.43,0,0,0,.48-.34,4.58,4.58,0,0,0,.38-.36Zm-.72-4.89-1.12,1.43H134l.68-1.43Z"/><path class="cls-1" d="M141.91,23.76l-.18,0h-.23a1.25,1.25,0,0,0-.5.11,2.25,2.25,0,0,0-.47.28,3.78,3.78,0,0,0-.41.39,3.22,3.22,0,0,0-.33.45v4.26h-.62V23.28h.62v.82a2.89,2.89,0,0,1,.51-.49,2.75,2.75,0,0,1,.5-.3,1.79,1.79,0,0,1,.47-.14,2,2,0,0,1,.4,0h.12l.12,0Z"/><path class="cls-1" d="M143.76,29.23h-.61V23.28h.61Zm0-7.44h-.62v-1h.62Z"/><path class="cls-1" d="M148,23.13a2.8,2.8,0,0,1,1.1.21A2.29,2.29,0,0,1,150,24a2.63,2.63,0,0,1,.53,1,4.34,4.34,0,0,1,.19,1.3,4.49,4.49,0,0,1-.19,1.33,3,3,0,0,1-.53,1,2.33,2.33,0,0,1-.84.62,2.75,2.75,0,0,1-1.09.21,2.67,2.67,0,0,1-1.08-.21,2.22,2.22,0,0,1-.84-.61,2.88,2.88,0,0,1-.53-1,4.25,4.25,0,0,1-.19-1.34,4.37,4.37,0,0,1,.18-1.31,2.89,2.89,0,0,1,.54-1,2.39,2.39,0,0,1,.83-.61A2.75,2.75,0,0,1,148,23.13Zm0,5.64a2.14,2.14,0,0,0,.82-.16,1.7,1.7,0,0,0,.65-.48,2.36,2.36,0,0,0,.41-.79,4.07,4.07,0,0,0,0-2.19,2.4,2.4,0,0,0-.41-.78,1.78,1.78,0,0,0-.65-.47,2.14,2.14,0,0,0-.82-.16,2.19,2.19,0,0,0-.83.16,1.75,1.75,0,0,0-.64.47,2.24,2.24,0,0,0-.42.78,4.35,4.35,0,0,0,0,2.19,2.2,2.2,0,0,0,.42.79,1.67,1.67,0,0,0,.64.48A2.19,2.19,0,0,0,148,28.77Z"/><path class="cls-1" d="M154.24,29.38c-1.46,0-2.25-.59-2.39-1.76h.62a1.19,1.19,0,0,0,.5.84,2.09,2.09,0,0,0,1.26.31,2.5,2.5,0,0,0,.71-.09,1.51,1.51,0,0,0,.51-.24,1,1,0,0,0,.31-.36,1.05,1.05,0,0,0,.1-.44,1,1,0,0,0-.08-.41.86.86,0,0,0-.3-.3,2.54,2.54,0,0,0-.57-.27q-.36-.12-.93-.27c-.32-.08-.61-.17-.86-.25a2.33,2.33,0,0,1-.63-.33,1.23,1.23,0,0,1-.39-.46,1.53,1.53,0,0,1-.13-.68,1.37,1.37,0,0,1,.15-.64,1.51,1.51,0,0,1,.42-.49,1.86,1.86,0,0,1,.65-.3,3.18,3.18,0,0,1,.85-.11,2.92,2.92,0,0,1,1.6.36,1.37,1.37,0,0,1,.61,1.12h-.62a.83.83,0,0,0-.42-.65,2.14,2.14,0,0,0-1.09-.22,2.45,2.45,0,0,0-.62.07A1.5,1.5,0,0,0,153,24a.85.85,0,0,0-.32.3.71.71,0,0,0-.12.41.85.85,0,0,0,0,.26.65.65,0,0,0,.23.29,2.68,2.68,0,0,0,.57.29,7.14,7.14,0,0,0,1,.31,8.87,8.87,0,0,1,.9.28,2.12,2.12,0,0,1,.62.33,1.29,1.29,0,0,1,.38.46,1.44,1.44,0,0,1,.12.61,1.63,1.63,0,0,1-.16.73,1.61,1.61,0,0,1-.44.59,2.36,2.36,0,0,1-.7.39A3,3,0,0,1,154.24,29.38Z"/><path class="cls-1" d="M7.82,8.9H11.6v2.17a5.84,5.84,0,0,1-2,1.69,6,6,0,0,1-2.83.63A5.61,5.61,0,0,1,4.66,13,4.43,4.43,0,0,1,3,11.85,5.69,5.69,0,0,1,2,10a7.84,7.84,0,0,1-.39-2.57A7.76,7.76,0,0,1,2,4.84,5.22,5.22,0,0,1,3,3,4.38,4.38,0,0,1,4.65,1.89a5.7,5.7,0,0,1,2.11-.37,5.87,5.87,0,0,1,1.72.23,5.15,5.15,0,0,1,1.36.61,3.6,3.6,0,0,1,.93.89,2.45,2.45,0,0,1,.44,1l0,.21h1.6l-.06-.3a5,5,0,0,0-.73-1.73,5.25,5.25,0,0,0-1.33-1.33A6.26,6.26,0,0,0,8.91.3,7.61,7.61,0,0,0,6.73,0,6.9,6.9,0,0,0,4,.52,6.06,6.06,0,0,0,1.88,2,6.79,6.79,0,0,0,.49,4.35,9.22,9.22,0,0,0,0,7.41a9.22,9.22,0,0,0,.48,3.06,6.87,6.87,0,0,0,1.39,2.37A6.16,6.16,0,0,0,4,14.37a6.91,6.91,0,0,0,2.77.54,8.81,8.81,0,0,0,1.46-.12,7,7,0,0,0,1.4-.37,6,6,0,0,0,1.27-.68,4.87,4.87,0,0,0,.78-.66l.37,1.58h1V7.39H7.82Z"/><path class="cls-1" d="M23,5.51a4,4,0,0,0-1.46-1.08,5,5,0,0,0-3.76,0,4,4,0,0,0-1.46,1.08,5.13,5.13,0,0,0-.92,1.7A7.49,7.49,0,0,0,15,9.47a7.26,7.26,0,0,0,.32,2.28,5.23,5.23,0,0,0,.92,1.72,4.06,4.06,0,0,0,1.45,1.08,5,5,0,0,0,3.75,0,4,4,0,0,0,1.46-1.08,5,5,0,0,0,.91-1.72,7.28,7.28,0,0,0,.32-2.27,7.4,7.4,0,0,0-.31-2.24A5,5,0,0,0,23,5.51Zm-.28,4a6,6,0,0,1-.23,1.74,3.58,3.58,0,0,1-.64,1.23,2.36,2.36,0,0,1-.95.71,3.4,3.4,0,0,1-2.51,0,2.5,2.5,0,0,1-.95-.71,3.57,3.57,0,0,1-.63-1.23,6,6,0,0,1-.22-1.74,6,6,0,0,1,.22-1.74,3.47,3.47,0,0,1,.63-1.21,2.7,2.7,0,0,1,.95-.7,3.22,3.22,0,0,1,1.26-.24,3.13,3.13,0,0,1,1.25.24,2.43,2.43,0,0,1,.95.7,3.48,3.48,0,0,1,.64,1.21A6.06,6.06,0,0,1,22.67,9.47Z"/><path class="cls-1" d="M31,4.06a7.27,7.27,0,0,0-.78.05,3.24,3.24,0,0,0-.91.24,4.39,4.39,0,0,0-1,.55,4.64,4.64,0,0,0-.56.48V4.32h-1.5V14.66h1.5V7.31A6.87,6.87,0,0,1,29.19,6a2.76,2.76,0,0,1,1.49-.46,2.93,2.93,0,0,1,1,.14,1.37,1.37,0,0,1,.6.41,1.79,1.79,0,0,1,.34.72A5.34,5.34,0,0,1,32.7,8v6.68h1.5V7.89C34.2,5.35,33.11,4.06,31,4.06Z"/><polygon class="cls-1" points="44.25 5.94 44.31 5.87 44.31 4.32 36.4 4.32 36.4 5.83 42.35 5.83 36.1 13.04 36.04 13.11 36.04 14.65 44.63 14.65 44.63 13.14 37.9 13.14 44.25 5.94"/><path class="cls-1" d="M53.43,5.13a3.1,3.1,0,0,0-1.25-.8,5.35,5.35,0,0,0-1.81-.27,4.92,4.92,0,0,0-2.9.73A3.07,3.07,0,0,0,46.29,7l0,.28h1.49l0-.22A1.51,1.51,0,0,1,48.47,6a3.7,3.7,0,0,1,1.92-.39,3.52,3.52,0,0,1,1.36.21,1.53,1.53,0,0,1,.71.54,2,2,0,0,1,.31.84,8.23,8.23,0,0,1,.07.9h-.9a8.06,8.06,0,0,0-4.4,1A3.24,3.24,0,0,0,46,11.89a3,3,0,0,0,.26,1.24,2.81,2.81,0,0,0,.69,1,3.07,3.07,0,0,0,1,.61,3.76,3.76,0,0,0,1.27.21,6.33,6.33,0,0,0,1-.07,5.1,5.1,0,0,0,1-.24,5.83,5.83,0,0,0,1-.5,7,7,0,0,0,.62-.43v1h1.5V8a5.64,5.64,0,0,0-.21-1.6A3,3,0,0,0,53.43,5.13ZM51.58,9.59h1.26v2.22c-.16.16-.34.34-.53.51a5.11,5.11,0,0,1-.75.54,4.45,4.45,0,0,1-.86.39,3.09,3.09,0,0,1-.91.14A2.85,2.85,0,0,1,48.08,13a1.33,1.33,0,0,1-.57-1.16,1.76,1.76,0,0,1,.94-1.6A6.37,6.37,0,0,1,51.58,9.59Z"/><path class="cls-1" d="M63.52,5a3.89,3.89,0,0,0-.46-.29,4.84,4.84,0,0,0-.85-.38,4.21,4.21,0,0,0-.82-.19,3.71,3.71,0,0,0-3.71,1.44,5.48,5.48,0,0,0-.85,1.73,7.6,7.6,0,0,0-.31,2.27,8.94,8.94,0,0,0,.25,2.15,5.05,5.05,0,0,0,.76,1.69,3.61,3.61,0,0,0,1.26,1.11,4.33,4.33,0,0,0,2.49.35,3.15,3.15,0,0,0,.83-.23,4.07,4.07,0,0,0,.89-.54,5.38,5.38,0,0,0,.52-.47,5.91,5.91,0,0,1-.19,1.59,2.46,2.46,0,0,1-.51,1,2,2,0,0,1-.83.53,3.87,3.87,0,0,1-1.24.17A3.39,3.39,0,0,1,59,16.55a1.31,1.31,0,0,1-.6-1.1l0-.23h-1.5l0,.27a3.17,3.17,0,0,0,.33,1.25,2.75,2.75,0,0,0,.82.94,3.93,3.93,0,0,0,1.22.57,6.63,6.63,0,0,0,3.38-.06A3.38,3.38,0,0,0,64,17.36a3.69,3.69,0,0,0,.8-1.45A7.5,7.5,0,0,0,65,13.82V4.32h-1.5Zm-1.27.93a4.84,4.84,0,0,1,1.27.94v4.72a5.59,5.59,0,0,1-1.34,1.36,2.66,2.66,0,0,1-1.52.46,2.22,2.22,0,0,1-1.92-.93A4.88,4.88,0,0,1,58,9.56a6.79,6.79,0,0,1,.21-1.8,3.64,3.64,0,0,1,.56-1.24,2.28,2.28,0,0,1,.84-.71,2.62,2.62,0,0,1,1.11-.23A3.41,3.41,0,0,1,62.25,5.91Z"/><path class="cls-1" d="M74.71,5.13a3,3,0,0,0-1.25-.8,5.33,5.33,0,0,0-1.8-.27,4.94,4.94,0,0,0-2.91.73A3,3,0,0,0,67.58,7l0,.28H69l0-.22A1.51,1.51,0,0,1,69.75,6a3.73,3.73,0,0,1,1.92-.39A3.52,3.52,0,0,1,73,5.79a1.53,1.53,0,0,1,.71.54,2,2,0,0,1,.31.84,8.23,8.23,0,0,1,.07.9h-.9a8.08,8.08,0,0,0-4.4,1,3.23,3.23,0,0,0-1.53,2.84,3,3,0,0,0,.25,1.24,2.81,2.81,0,0,0,.69,1,3.07,3.07,0,0,0,1,.61,3.76,3.76,0,0,0,1.27.21,6.24,6.24,0,0,0,1-.07,5.1,5.1,0,0,0,1-.24,5.83,5.83,0,0,0,1-.5,7,7,0,0,0,.62-.43v1h1.5V8a5.64,5.64,0,0,0-.21-1.6A3,3,0,0,0,74.71,5.13ZM72.86,9.59h1.26v2.22c-.16.16-.33.34-.53.51a5.11,5.11,0,0,1-.75.54,4.19,4.19,0,0,1-.86.39,3.09,3.09,0,0,1-.91.14A2.85,2.85,0,0,1,69.36,13a1.35,1.35,0,0,1-.57-1.16,1.75,1.75,0,0,1,.95-1.6A6.3,6.3,0,0,1,72.86,9.59Z"/><path class="cls-1" d="M92.69,8.12a4.2,4.2,0,0,0-1-.73,7.9,7.9,0,0,0-1.2-.48c-.41-.13-.84-.25-1.27-.34L88,6.3a12.69,12.69,0,0,1-1.68-.45,4.36,4.36,0,0,1-1-.53,1.71,1.71,0,0,1-.52-.64,2.15,2.15,0,0,1-.15-.85,1.93,1.93,0,0,1,.84-1.68,4.53,4.53,0,0,1,2.64-.63,5.58,5.58,0,0,1,1.49.18,4.14,4.14,0,0,1,1.1.51,2.71,2.71,0,0,1,.74.77,3.3,3.3,0,0,1,.42,1l0,.19h1.45l0-.28a4.15,4.15,0,0,0-.55-1.62A4.11,4.11,0,0,0,91.57,1,5.08,5.08,0,0,0,90,.26a7.5,7.5,0,0,0-4,0,4.64,4.64,0,0,0-1.57.79,3.5,3.5,0,0,0-1,1.24A3.55,3.55,0,0,0,83,3.91a3.44,3.44,0,0,0,.28,1.41,3,3,0,0,0,.84,1.1,5.31,5.31,0,0,0,1.4.8,11.74,11.74,0,0,0,2,.6c.89.19,1.66.38,2.26.57a6,6,0,0,1,1.42.6,1.82,1.82,0,0,1,.71.73,2.4,2.4,0,0,1,.21,1.07,2.37,2.37,0,0,1-.24,1.07,2.41,2.41,0,0,1-.72.81,3.83,3.83,0,0,1-1.17.54,7.77,7.77,0,0,1-3.19,0,4.13,4.13,0,0,1-1.3-.49,3.05,3.05,0,0,1-.94-.92A3.65,3.65,0,0,1,84,10.38l0-.21H82.51l0,.26A5,5,0,0,0,83,12.29a3.86,3.86,0,0,0,1.16,1.42A5.3,5.3,0,0,0,86,14.6a8.87,8.87,0,0,0,2.49.31,6.68,6.68,0,0,0,2-.31,5.2,5.2,0,0,0,1.65-.88,4.14,4.14,0,0,0,1.09-1.37,3.9,3.9,0,0,0,.4-1.74,3.56,3.56,0,0,0-.27-1.44A3.33,3.33,0,0,0,92.69,8.12Z"/><path class="cls-1" d="M102.93,5.13a3,3,0,0,0-1.25-.8,5.29,5.29,0,0,0-1.8-.27,4.88,4.88,0,0,0-2.9.73A3,3,0,0,0,95.8,7l0,.28h1.48l0-.22A1.52,1.52,0,0,1,98,6a3.66,3.66,0,0,1,1.91-.39,3.61,3.61,0,0,1,1.37.21,1.5,1.5,0,0,1,.7.54,1.73,1.73,0,0,1,.31.84,8.23,8.23,0,0,1,.07.9h-.9a8.1,8.1,0,0,0-4.4,1,3.23,3.23,0,0,0-1.53,2.84,3,3,0,0,0,.25,1.24,2.84,2.84,0,0,0,.7,1,2.93,2.93,0,0,0,1,.61,3.76,3.76,0,0,0,1.27.21,6.37,6.37,0,0,0,1-.07,5.18,5.18,0,0,0,1-.24,6.57,6.57,0,0,0,1.62-.93v1h1.51V8a6,6,0,0,0-.21-1.6A3,3,0,0,0,102.93,5.13Zm-1.85,4.46h1.26v2.22a6.56,6.56,0,0,1-.53.51,5.11,5.11,0,0,1-.75.54,4.11,4.11,0,0,1-.85.39,3.21,3.21,0,0,1-.92.14A2.85,2.85,0,0,1,97.58,13,1.35,1.35,0,0,1,97,11.79a1.75,1.75,0,0,1,.95-1.6A6.3,6.3,0,0,1,101.08,9.59Z"/><path class="cls-1" d="M117,4.06a4.56,4.56,0,0,0-.89.09,3.7,3.7,0,0,0-.94.31,4.28,4.28,0,0,0-.9.58,5.11,5.11,0,0,0-.57.57,2.51,2.51,0,0,0-.89-1.06,3.39,3.39,0,0,0-2.46-.43,3.22,3.22,0,0,0-.82.26,4.1,4.1,0,0,0-.88.54,4.59,4.59,0,0,0-.55.48V4.32h-1.5V14.66h1.5V7.33A7,7,0,0,1,109.44,6a2.32,2.32,0,0,1,1.35-.45,2.17,2.17,0,0,1,.82.13,1.13,1.13,0,0,1,.48.38,2,2,0,0,1,.28.73A6.43,6.43,0,0,1,112.46,8v6.68H114V7.33A6,6,0,0,1,115.32,6a2.52,2.52,0,0,1,1.42-.46,1.51,1.51,0,0,1,1.32.51A3.54,3.54,0,0,1,118.44,8v6.68h1.5V7.89C119.94,5.35,119,4.06,117,4.06Z"/><path class="cls-1" d="M130.09,5.56a3.55,3.55,0,0,0-1.27-1.11,4.19,4.19,0,0,0-2.49-.35,3.21,3.21,0,0,0-.86.25,4.24,4.24,0,0,0-.91.55,4.42,4.42,0,0,0-.52.47v-1h-1.5v14H124V14a4.91,4.91,0,0,0,.5.34,4.76,4.76,0,0,0,.87.4,4.47,4.47,0,0,0,.84.17,4.23,4.23,0,0,0,2.39-.38A4,4,0,0,0,130,13.38a5.55,5.55,0,0,0,.86-1.74,7.85,7.85,0,0,0,.3-2.25,8.5,8.5,0,0,0-.26-2.15A5.19,5.19,0,0,0,130.09,5.56Zm-.48,3.83a7.16,7.16,0,0,1-.2,1.78,3.91,3.91,0,0,1-.57,1.25,2.34,2.34,0,0,1-.84.73,2.51,2.51,0,0,1-1.11.24A3.84,3.84,0,0,1,124,12.1V7.38A3.59,3.59,0,0,1,127,5.58a2.24,2.24,0,0,1,1.93.92A4.88,4.88,0,0,1,129.61,9.39Z"/><path class="cls-1" d="M140.16,5.13a3,3,0,0,0-1.25-.8,5.29,5.29,0,0,0-1.8-.27,4.88,4.88,0,0,0-2.9.73A3,3,0,0,0,133,7l0,.28h1.48l0-.22a1.52,1.52,0,0,1,.7-1.13,3.66,3.66,0,0,1,1.91-.39,3.61,3.61,0,0,1,1.37.21,1.5,1.5,0,0,1,.7.54,1.84,1.84,0,0,1,.31.84,8.23,8.23,0,0,1,.07.9h-.9a8.1,8.1,0,0,0-4.4,1,3.23,3.23,0,0,0-1.53,2.84,2.91,2.91,0,0,0,.94,2.2,3.07,3.07,0,0,0,1,.61,3.76,3.76,0,0,0,1.27.21,6.46,6.46,0,0,0,1-.07,5.18,5.18,0,0,0,1-.24,6.57,6.57,0,0,0,1.62-.93v1h1.51V8a6,6,0,0,0-.21-1.6A3,3,0,0,0,140.16,5.13Zm-1.85,4.46h1.26v2.22a6.56,6.56,0,0,1-.53.51,5.11,5.11,0,0,1-.75.54,4.11,4.11,0,0,1-.85.39,3.21,3.21,0,0,1-.92.14,2.85,2.85,0,0,1-1.71-.44,1.35,1.35,0,0,1-.57-1.16,1.75,1.75,0,0,1,.95-1.6A6.3,6.3,0,0,1,138.31,9.59Z"/><rect class="cls-1" x="143.98" y="0.25" width="1.5" height="2.09"/><rect class="cls-1" x="143.97" y="4.32" width="1.5" height="10.34"/><path class="cls-1" d="M156.44,7.23a4.75,4.75,0,0,0-.92-1.71,3.81,3.81,0,0,0-1.45-1.09,5,5,0,0,0-3.77,0,4,4,0,0,0-1.45,1.08,4.79,4.79,0,0,0-.92,1.7,7.52,7.52,0,0,0-.32,2.26,7.25,7.25,0,0,0,.33,2.28,4.89,4.89,0,0,0,.92,1.72,4.06,4.06,0,0,0,1.45,1.08,4.72,4.72,0,0,0,1.87.36,4.81,4.81,0,0,0,1.88-.37,3.89,3.89,0,0,0,1.45-1.08,4.89,4.89,0,0,0,.92-1.72,7.59,7.59,0,0,0,.32-2.27A7.72,7.72,0,0,0,156.44,7.23Zm-1.19,2.24a5.67,5.67,0,0,1-.24,1.74,3.57,3.57,0,0,1-.63,1.23,2.5,2.5,0,0,1-.95.71,3.4,3.4,0,0,1-2.51,0,2.36,2.36,0,0,1-.95-.71,3.57,3.57,0,0,1-.63-1.23,6,6,0,0,1-.23-1.74,6.06,6.06,0,0,1,.23-1.74A3.38,3.38,0,0,1,150,6.52a2.43,2.43,0,0,1,.95-.7,3.15,3.15,0,0,1,1.26-.24,3.2,3.2,0,0,1,1.25.24,2.7,2.7,0,0,1,.95.7A3.47,3.47,0,0,1,155,7.73,5.72,5.72,0,0,1,155.25,9.47Z"/></g></g></svg>