<svg xmlns="http://www.w3.org/2000/svg" viewBox="0 0 72.9 72.9"><defs><style>.cls-1{fill:#fff;}</style></defs><title>Logo-2</title><g id="Layer_2" data-name="Layer 2"><g id="Layer_1-2" data-name="Layer 1"><path class="cls-1" d="M58.77,3A11.13,11.13,0,0,1,69.9,14.13V58.77A11.13,11.13,0,0,1,58.77,69.9H14.13A11.13,11.13,0,0,1,3,58.77V14.13A11.13,11.13,0,0,1,14.13,3H58.77m0-3H14.13A14.15,14.15,0,0,0,0,14.13V58.77A14.15,14.15,0,0,0,14.13,72.9H58.77A14.15,14.15,0,0,0,72.9,58.77V14.13A14.15,14.15,0,0,0,58.77,0Z"/><path class="cls-1" d="M23.94,40V35.43H35.66V46.3a14.85,14.85,0,0,1-4.95,3,17.79,17.79,0,0,1-6.56,1.27,14.62,14.62,0,0,1-7.36-1.79,11.32,11.32,0,0,1-4.72-5.14,16.84,16.84,0,0,1-1.58-7.27,16,16,0,0,1,1.76-7.58,12,12,0,0,1,5.16-5.08,13.83,13.83,0,0,1,6.44-1.36q5,0,7.83,2.13a9.66,9.66,0,0,1,3.63,5.9l-5.4,1a5.74,5.74,0,0,0-2.14-3.17A6.36,6.36,0,0,0,23.85,27a7.33,7.33,0,0,0-5.66,2.29c-1.4,1.53-2.1,3.79-2.1,6.8,0,3.24.71,5.66,2.13,7.28a7.06,7.06,0,0,0,5.58,2.43,9.06,9.06,0,0,0,3.42-.68,11.67,11.67,0,0,0,3-1.64V40Z"/><path class="cls-1" d="M39.48,41.18l5.28-.52a6.57,6.57,0,0,0,1.94,4,5.78,5.78,0,0,0,3.94,1.27,6,6,0,0,0,4-1.13,3.37,3.37,0,0,0,1.34-2.63,2.52,2.52,0,0,0-.56-1.65,4.51,4.51,0,0,0-2-1.18c-.64-.23-2.09-.62-4.35-1.19-2.91-.74-5-1.64-6.13-2.7a7.15,7.15,0,0,1-2.48-5.49A7.07,7.07,0,0,1,41.62,26,7.24,7.24,0,0,1,45,23.25a13.3,13.3,0,0,1,5.29-.95q5.07,0,7.63,2.25a8,8,0,0,1,2.69,6l-5.44.24a4.74,4.74,0,0,0-1.49-3,5.45,5.45,0,0,0-3.44-.92,6.13,6.13,0,0,0-3.71,1,2,2,0,0,0-.86,1.69,2.13,2.13,0,0,0,.8,1.66c.69.58,2.35,1.19,5,1.82a26.11,26.11,0,0,1,5.86,2,7.66,7.66,0,0,1,3,2.77,8.27,8.27,0,0,1,1.07,4.35,8.08,8.08,0,0,1-1.29,4.39,7.69,7.69,0,0,1-3.63,3,15.16,15.16,0,0,1-5.86,1q-5.1,0-7.83-2.39A10.41,10.41,0,0,1,39.48,41.18Z"/></g></g></svg>