<?xml version="1.0" encoding="utf-8"?>
<!-- Generator: Adobe Illustrator 23.0.1, SVG Export Plug-In . SVG Version: 6.00 Build 0)  -->
<svg version="1.1" id="Capa_1" xmlns="http://www.w3.org/2000/svg" xmlns:xlink="http://www.w3.org/1999/xlink" x="0px" y="0px"
	 viewBox="0 0 512 512" style="enable-background:new 0 0 512 512;" xml:space="preserve">
<style type="text/css">
	.st0{fill:#122232;}
</style>
<g>
	<path class="st0" d="M376,245c-9.9-8.9-25.9-21.8-46.3-32.8c-25.1-13.5-49.8-20.3-73.7-20.3c-28.9,0-58.9,9.9-89.2,29.5
		c-1.7,1.1-2.2,3.4-1.1,5.1c1.1,1.7,3.4,2.2,5.1,1.1c15.4-10,30.7-17.3,45.8-22.1c-15,11.7-24.7,30-24.7,50.5
		c0,20.4,9.6,38.6,24.5,50.4c-34.9-11-62.9-33.5-75.5-44.8c-1.7-1.5-2.6-3.5-2.6-5.6c0-2.1,0.9-4,2.6-5.6c5.5-5,11.5-9.9,17.7-14.4
		c1.6-1.2,2-3.5,0.8-5.1c-1.2-1.6-3.5-2-5.1-0.8c-6.4,4.7-12.5,9.7-18.2,14.9c-3.2,2.9-5,6.8-5,11c0,4.2,1.8,8.1,5,11
		c9.9,8.9,25.9,21.8,46.3,32.8c25.1,13.5,49.8,20.3,73.7,20.3c25.9,0,52.8-8,80-23.9c1.7-1,2.3-3.3,1.3-5c-1-1.7-3.3-2.3-5-1.3
		c-12.4,7.2-24.7,12.7-36.8,16.5c15-11.7,24.6-30,24.6-50.5c0-20.4-9.6-38.6-24.5-50.4c34.9,11,62.9,33.5,75.5,44.8
		c1.7,1.5,2.6,3.5,2.6,5.6c0,2.1-0.9,4-2.6,5.6c-5.6,5.1-14.7,12.7-26.2,20.5c-1.7,1.1-2.1,3.4-1,5.1c0.7,1,1.9,1.6,3,1.6
		c0.7,0,1.4-0.2,2-0.6c11.8-8,21.2-15.9,27-21.1c3.2-2.9,5-6.8,5-11S379.2,247.9,376,245L376,245z M312.8,256
		c0,31.3-25.5,56.8-56.8,56.8c-31.3,0-56.8-25.5-56.8-56.8c0-31.3,25.5-56.8,56.8-56.8C287.3,199.2,312.8,224.7,312.8,256L312.8,256
		z"/>
	<path class="st0" d="M256,288.7c18,0,32.7-14.7,32.7-32.7c0-8.1-2.9-15.8-8.3-21.8c0.6-1.7,1-3.5,1-5.4c0-8.3-6.8-15.1-15.1-15.1
		c-6.4,0-11.9,4.1-14.1,9.7c-16.4,1.9-29,15.9-29,32.5C223.3,274,238,288.7,256,288.7z M266.3,221.1c4.3,0,7.8,3.5,7.8,7.8
		s-3.5,7.8-7.8,7.8s-7.8-3.5-7.8-7.8C258.6,224.6,262.1,221.1,266.3,221.1z M251.4,231c1.1,7.3,7.3,12.9,14.9,12.9
		c3.7,0,7.1-1.3,9.7-3.5c3.5,4.4,5.4,9.9,5.4,15.6c0,14-11.4,25.4-25.4,25.4c-14,0-25.4-11.4-25.4-25.4
		C230.6,243.7,239.5,233.2,251.4,231L251.4,231z"/>
</g>
</svg>
