<?xml version="1.0" encoding="utf-8"?>
<!-- Generator: Adobe Illustrator 23.0.1, SVG Export Plug-In . SVG Version: 6.00 Build 0)  -->
<svg version="1.1" id="Capa_1" xmlns="http://www.w3.org/2000/svg" xmlns:xlink="http://www.w3.org/1999/xlink" x="0px" y="0px"
	 viewBox="0 0 512 512" style="enable-background:new 0 0 512 512;" xml:space="preserve">
<style type="text/css">
	.st0{fill:#122232;}
</style>
<g>
	<g>
		<path class="st0" d="M342.2,203.7H175.6c-7.1,0-12.8,5.8-12.8,12.8c0,5.7,3.7,10.6,8.9,12.2c0.1,1.9,0.3,3.8,0.5,5.6H144
			c-1.7-5.1-6.5-8.7-12.2-8.7c-7.1,0-12.8,5.8-12.8,12.8s5.8,12.8,12.8,12.8c5.7,0,10.5-3.7,12.2-8.7h29.9
			c5.8,20.7,21.9,38.1,43.3,48l-12.8,66.5c-0.1,0-0.2,0-0.3,0c-10.7,0-19.5,8.7-19.5,19.5c0,10.7,8.7,19.5,19.5,19.5
			c10.7,0,19.5-8.7,19.5-19.5c0-7.8-4.5-14.4-11.2-17.6l2.1-11.2h88.6l8.6,44.9c0.4,2,2.1,3.3,4,3.3c0.3,0,0.5,0,0.8-0.1
			c2.2-0.4,3.7-2.6,3.2-4.8l-19.4-100.5c26.1-12.1,44.2-35.1,45.6-61.8c5.1-1.7,8.9-6.5,8.9-12.2C355,209.5,349.3,203.7,342.2,203.7
			z M131.8,243.2c-2.6,0-4.6-2.1-4.6-4.6c0-2.6,2.1-4.6,4.6-4.6s4.6,2.1,4.6,4.6C136.4,241,134.3,243.2,131.8,243.2z M215.3,376.5
			c0,6.2-5,11.3-11.3,11.3c-6.2,0-11.3-5-11.3-11.3c0-6.2,5-11.3,11.3-11.3C210.3,365.3,215.3,370.3,215.3,376.5z M301.6,339.6
			h-85.5l8.8-45.8c10.4,3.8,21.9,5.9,34,5.9c12,0,23.5-2.1,34-5.9L301.6,339.6z M342.2,221.2h-17.6c-2.2,0-4.1,1.9-4.1,4.1
			c0,2.2,1.9,4.1,4.1,4.1h13.3c-1.6,22.5-16.9,42-38.9,52.8l-1-5.1c-0.4-2.2-2.6-3.7-4.8-3.2c-2.2,0.4-3.7,2.6-3.2,4.8l1.3,6.9
			c-9.9,3.7-20.8,5.8-32.4,5.8c-11.5,0-22.5-2.1-32.4-5.8l1.3-6.9c0.4-2.2-1-4.4-3.2-4.8c-2.2-0.4-4.4,1-4.8,3.2l-1,5.1
			c-22-10.8-37.3-30.3-38.9-52.8h127.2c2.2,0,4.1-1.9,4.1-4.1c0-2.2-1.9-4.1-4.1-4.1H175.6c-2.6,0-4.6-2.1-4.6-4.6s2.1-4.6,4.6-4.6
			h166.5c2.6,0,4.6,2.1,4.6,4.6C346.8,219.2,344.7,221.2,342.2,221.2z"/>
	</g>
</g>
<g>
	<g>
		<path class="st0" d="M314.4,189.6c-4.3-27.1-17.4-45.5-27.7-56.2c-11.2-11.6-21.2-16.8-21.7-17c-1.4-0.7-3-0.5-4.3,0.4
			c-1.3,0.9-1.9,2.5-1.6,4c2.8,16.8-2,27.6-5.1,32.6l-5.5-5.5c-0.9-0.9-2.1-1.3-3.3-1.2c-1.2,0.1-2.4,0.8-3,1.9
			c-5.3,8.1-12.6,13.7-19.7,19c-8,6.1-15.7,11.9-20,20.9c-1,2-0.1,4.5,1.9,5.5c0.6,0.3,1.2,0.4,1.8,0.4c1.5,0,3-0.9,3.7-2.3
			c3.5-7.3,10.1-12.2,17.6-17.9c6.2-4.6,13-9.8,18.6-17l5.4,5.4c1.6,1.6,4.2,1.6,5.8,0c0.5-0.5,11.7-12,10.8-34.3
			c11.1,8,32.5,27.7,38.1,62.8c0.4,2.2,2.5,3.8,4.7,3.4C313.2,194,314.8,191.9,314.4,189.6z"/>
	</g>
</g>
<g>
	<g>
		<path class="st0" d="M291,189.3c-4.7-18.6-16.7-24.4-17.2-24.7c-2-0.9-4.4-0.1-5.4,1.9c-6.2,12.6-20,20-20.2,20.1
			c-2,1-2.8,3.6-1.7,5.5c1,2,3.6,2.8,5.5,1.7c0.6-0.3,13.5-7.2,21.4-19.6c3,2.6,7.3,7.8,9.6,17c0.5,1.9,2.1,3.1,4,3.1
			c0.3,0,0.7-0.1,1-0.1C290.2,193.7,291.5,191.4,291,189.3z"/>
	</g>
</g>
</svg>
