<?xml version="1.0" encoding="utf-8"?>
<!-- Generator: Adobe Illustrator 23.0.1, SVG Export Plug-In . SVG Version: 6.00 Build 0)  -->
<svg version="1.1" id="Capa_1" xmlns="http://www.w3.org/2000/svg" xmlns:xlink="http://www.w3.org/1999/xlink" x="0px" y="0px"
	 viewBox="0 0 480 480" style="enable-background:new 0 0 480 480;" xml:space="preserve">
<style type="text/css">
	.st0{fill:#122232;}
</style>
<g>
	<g>
		<path class="st0" d="M360.8,256.7h-4.2v-12.5c0-8.3-4.9-15.8-12.5-19.1v-64.3c0-1.7-1-3.2-2.5-3.8c1.6-2.6,2.5-5.6,2.5-8.7
			c0-9.2-7.4-16.7-16.7-16.7s-16.7,7.4-16.7,16.7c0,2.9,0.8,5.8,2.3,8.3H166.9c1.5-2.5,2.3-5.4,2.3-8.3c0-9.2-7.4-16.7-16.7-16.7
			s-16.7,7.4-16.7,16.7c0,3.1,0.9,6.1,2.5,8.7c-1.5,0.6-2.5,2.1-2.5,3.8v64.3c-7.6,3.3-12.5,10.8-12.5,19.1v12.5h-4.2
			c-2.3,0-4.2,1.9-4.2,4.2v58.3c0,2.3,1.9,4.2,4.2,4.2h4.2v20.8c0,2.3,1.9,4.2,4.2,4.2h16.7c2.3,0,4.2-1.9,4.2-4.2v-20.8h183.3v20.8
			c0,2.3,1.9,4.2,4.2,4.2h16.7c2.3,0,4.2-1.9,4.2-4.2v-20.8h4.2c2.3,0,4.2-1.9,4.2-4.2v-58.3C365,258.5,363.1,256.7,360.8,256.7z
			 M327.5,140c4.6,0,8.3,3.8,8.3,8.3c0,4.6-3.8,8.3-8.3,8.3s-8.3-3.8-8.3-8.3C319.2,143.8,322.9,140,327.5,140z M152.5,140
			c4.6,0,8.3,3.8,8.3,8.3c0,4.6-3.8,8.3-8.3,8.3s-8.3-3.8-8.3-8.3C144.2,143.8,147.9,140,152.5,140z M144.2,165h191.7v58.3h-16.8
			c2.8-3.6,4.3-8,4.3-12.5v-8.3c0-11.5-9.3-20.8-20.8-20.8h-33.3c-11.5,0-20.8,9.3-20.8,20.8v8.3c0,4.5,1.5,8.9,4.3,12.5h-25.2
			c2.8-3.6,4.3-8,4.3-12.5v-8.3c0-11.5-9.3-20.8-20.8-20.8h-33.3c-11.5,0-20.8,9.3-20.8,20.8v8.3c0,4.5,1.5,8.9,4.3,12.5h-16.8V165z
			 M315,202.5v8.3c0,6.9-5.6,12.5-12.5,12.5h-33.3c-6.9,0-12.5-5.6-12.5-12.5v-8.3c0-6.9,5.6-12.5,12.5-12.5h33.3
			C309.4,190,315,195.6,315,202.5z M223.3,202.5v8.3c0,6.9-5.6,12.5-12.5,12.5h-33.3c-6.9,0-12.5-5.6-12.5-12.5v-8.3
			c0-6.9,5.6-12.5,12.5-12.5h33.3C217.8,190,223.3,195.6,223.3,202.5z M131.7,244.2c0-6.9,5.6-12.5,12.5-12.5h191.7
			c6.9,0,12.5,5.6,12.5,12.5v12.5H131.7V244.2z M140,340h-8.3v-16.7h8.3V340z M348.3,340H340v-16.7h8.3V340z M356.7,315H123.3v-50
			h233.3V315z"/>
	</g>
</g>
<g>
	<g>
		<path class="st0" d="M152.5,298.3h-16.7c-2.3,0-4.2,1.9-4.2,4.2s1.9,4.2,4.2,4.2h16.7c2.3,0,4.2-1.9,4.2-4.2
			S154.8,298.3,152.5,298.3z"/>
	</g>
</g>
<g>
	<g>
		<path class="st0" d="M344.2,298.3h-175c-2.3,0-4.2,1.9-4.2,4.2s1.9,4.2,4.2,4.2h175c2.3,0,4.2-1.9,4.2-4.2
			S346.5,298.3,344.2,298.3z"/>
	</g>
</g>
</svg>
