<?xml version="1.0" encoding="utf-8"?>
<!-- Generator: Adobe Illustrator 23.0.1, SVG Export Plug-In . SVG Version: 6.00 Build 0)  -->
<svg version="1.1" id="Layer_1" xmlns="http://www.w3.org/2000/svg" xmlns:xlink="http://www.w3.org/1999/xlink" x="0px" y="0px"
	 viewBox="0 0 512 512" style="enable-background:new 0 0 512 512;" xml:space="preserve">
<style type="text/css">
	.st0{fill:#122232;}
</style>
<title>Car2</title>
<path class="st0" d="M366,225.7l-19.3-52.2c-3.1-8.4-11.1-13.9-20-14H188.8c-8.9,0.1-16.9,5.6-20,14l-19.1,51.6l-8.1,7.5
	c-6.6,5.7-10.5,14-10.5,22.7v92.8c0.1,2.4,2,4.3,4.5,4.3h48.3c2.4,0,4.3-1.9,4.3-4.3V319h135.8v29.1c0,2.4,1.9,4.3,4.3,4.3h48.3
	c2.4,0,4.4-1.9,4.5-4.3v-94.8c-0.1-8.2-3.4-16-9.3-21.7L366,225.7z M176.9,176.4c1.9-5,6.6-8.3,12-8.2h137.7c5.3,0,10.1,3.3,12,8.2
	l17.3,46.7H159.6L176.9,176.4z M179.5,343.8h-39.9V319h39.9V343.8z M332.5,343.8V319h39.9v24.8H332.5z M372.4,293.5v16.9H139.6
	v-55.1c0-6.3,2.8-12.2,7.6-16.2c0.1-0.1,0.2-0.2,0.2-0.2l7.7-7.2h204.8l5.5,5.9c0.1,0.1,0.2,0.2,0.3,0.2c4.3,4,6.7,9.6,6.7,15.5
	L372.4,293.5L372.4,293.5z"/>
<path class="st0" d="M178.6,255.5h-4.2c-10.1,0-18.3,8.2-18.3,18.3s8.2,18.3,18.3,18.3h4.2c10.1,0,18.3-8.2,18.3-18.3
	S188.7,255.5,178.6,255.5z M178.6,283.5h-4.2c-5.3,0-9.7-4.4-9.7-9.7s4.4-9.7,9.7-9.7h4.2c5.3,0,9.7,4.4,9.7,9.7
	S184,283.5,178.6,283.5z"/>
<path class="st0" d="M337.6,255.5h-4.2c-10.1,0-18.3,8.2-18.3,18.3s8.2,18.3,18.3,18.3h4.2c10.1,0,18.3-8.2,18.3-18.3
	S347.7,255.5,337.6,255.5z M337.6,283.5h-4.2c-5.3,0-9.7-4.4-9.7-9.7s4.4-9.7,9.7-9.7h4.2c5.3,0,9.7,4.4,9.7,9.7
	S343,283.5,337.6,283.5z"/>
<path class="st0" d="M297.5,260.3c0-2.4-1.9-4.3-4.3-4.3h-73.8c-2.4,0-4.3,1.9-4.3,4.3v27.5c0,2.4,1.9,4.3,4.3,4.3h73.8
	c2.4,0,4.3-1.9,4.3-4.3V260.3z M288.3,283.5h-64.7v-18.9h64.7V283.5z"/>
</svg>
