<?xml version="1.0" encoding="utf-8"?>
<!-- Generator: Adobe Illustrator 23.0.1, SVG Export Plug-In . SVG Version: 6.00 Build 0)  -->
<svg version="1.1" id="Capa_1" xmlns="http://www.w3.org/2000/svg" xmlns:xlink="http://www.w3.org/1999/xlink" x="0px" y="0px"
	 viewBox="0 0 512 512" style="enable-background:new 0 0 512 512;" xml:space="preserve">
<style type="text/css">
	.st0{fill:#122232;}
</style>
<g>
	<path class="st0" d="M207.7,235.6L207.7,235.6c0,2,1.7,3.7,3.7,3.7s3.7-1.7,3.7-3.7s-1.7-3.7-3.7-3.7
		C209.3,231.9,207.7,233.6,207.7,235.6z"/>
	<path class="st0" d="M184.4,245.9L184.4,245.9c0,2,1.7,3.7,3.7,3.7c2,0,3.7-1.7,3.7-3.7s-1.7-3.7-3.7-3.7
		C186,242.3,184.4,243.9,184.4,245.9z"/>
	<path class="st0" d="M199.7,262.8L199.7,262.8c0,2,1.7,3.7,3.7,3.7s3.7-1.7,3.7-3.7c0-2-1.7-3.7-3.7-3.7S199.7,260.8,199.7,262.8z"
		/>
	<path class="st0" d="M304.1,248.5c0-2-1.7-3.7-3.7-3.7c-2,0-3.7,1.7-3.7,3.7v0c0,2,1.7,3.7,3.7,3.7
		C302.5,252.1,304.1,250.5,304.1,248.5z"/>
	<path class="st0" d="M326.4,270.8c0-2-1.7-3.7-3.7-3.7c-2,0-3.7,1.7-3.7,3.7l0,0c0,2,1.7,3.7,3.7,3.7
		C324.7,274.5,326.4,272.8,326.4,270.8z"/>
	<path class="st0" d="M312.1,288.6c0-2-1.7-3.7-3.7-3.7c-2,0-3.7,1.7-3.7,3.7l0,0c0,2,1.7,3.7,3.7,3.7
		C310.4,292.3,312.1,290.6,312.1,288.6z"/>
	<path class="st0" d="M247.3,163.9l-45.4-12.2c-3.1-0.8-6.4,1-7.4,4.1l-32.2,100c-4.5,14,1.4,29.4,14,37.9l-9.4,35.1l-20.6,13.4
		c-2.7,1.8-6.4,4.1-5.8,7.9c0.5,3.4,4.3,4.4,5.5,4.8l24,6.4l24,6.4c0.6,0.1,1.7,0.4,3,0.4c1.4,0,3-0.4,4.2-1.8
		c2.3-2.9,0.3-6.8-1.1-9.7l-11.1-22l9.4-35.1c15.1-1,28-11.5,31-25.9l2.5-11.6c0.4-2-0.8-3.9-2.8-4.3c-2-0.4-3.9,0.8-4.3,2.8
		l-2.5,11.6c-2.5,11.7-13.6,20.2-26.4,20.2c-0.1,0-3.6,0.2-7.2-0.9c-2.3-0.6-4.4-1.5-6.4-2.6c-11.2-6.3-16.7-19.3-13-30.8l12.9-40
		c3.4,0.4,8.2,0.7,13.7,0.7c11.4,0,26.3-1.6,39.6-7.8l-7.1,32.8c-0.4,2,0.8,3.9,2.8,4.3c2,0.4,3.9-0.8,4.3-2.8l16-74.1
		C252.4,167.9,250.5,164.7,247.3,163.9L247.3,163.9z M183,297.2C183,297.2,183,297.2,183,297.2c1.3,0.5,2.6,1,4,1.3
		c1.3,0.3,2.7,0.6,4.1,0.8c0,0,0,0,0,0l-9.3,34.8c-0.2,0.9-0.1,1.8,0.3,2.6l11.7,23.2c0,0,0,0,0,0l-21.7-5.8l-21.7-5.8l0,0
		l21.8-14.2c0.7-0.5,1.3-1.3,1.5-2.1L183,297.2z M237.6,201.6c-18.3,10.9-41.7,10.4-53.1,9.3l16.6-51.8l43.1,11.5L237.6,201.6z"/>
	<path class="st0" d="M364.9,354.8l-14.1-5.9c-3.4-1.4-4.8-2.9-5.6-5.9l-9.8-36.5c12.6-8.4,18.4-24,14-37.9l-32.2-100
		c-1-3.1-4.2-4.9-7.4-4.1l-45.4,12.2c-3.1,0.8-5,4-4.3,7.3l14.7,68.1c0.4,2,2.4,3.2,4.3,2.8c2-0.4,3.2-2.4,2.8-4.3l-5.8-26.6
		c12.5,6.3,27.9,10.4,42.7,11.4c2,0.1,4,0.2,5.8,0.2c2.2,0,4.2-0.1,6.2-0.2l11.5,35.7c3.7,11.5-1.8,24.5-13,30.8
		c-2,1.1-4.1,2-6.4,2.6c-2.9,0.9-4.7,1-7.2,0.9c-12.9,0-23.9-8.4-26.4-20.2l-3.8-18.4c-0.4-2-2.3-3.3-4.3-2.8
		c-2,0.4-3.3,2.3-2.8,4.3l3.8,18.4c3,14.3,15.8,24.8,31,25.9L323,349c0.8,3,0.3,5-1.9,7.9L312,369c-3.7,4.9-3.1,8-2,9.7
		c0.6,1,2,2.3,4.8,2.3c0.8,0,1.8-0.1,2.9-0.4l48-12.9c4.7-1.3,5.6-4,5.7-5.5C371.6,360.1,370.5,357.1,364.9,354.8L364.9,354.8z
		 M319.4,228c-16.1-1-32.9-6.1-45.2-13.6l-6.7-30.9l43.1-11.6l18.1,56.1C325.8,228.2,322.7,228.2,319.4,228z M318.2,372.9l8.8-11.6
		c3.6-4.7,4.5-9,3.1-14.2l-9.3-34.8h0c1.4-0.2,2.7-0.5,4.1-0.8c1.3-0.3,2.6-0.8,3.9-1.3h0l9.3,34.8c1.4,5.2,4.3,8.4,9.8,10.7
		l13.5,5.6L318.2,372.9z"/>
	<path class="st0" d="M265.6,146.6v-11.8c0-2-1.7-3.7-3.7-3.7c-2,0-3.7,1.7-3.7,3.7v11.8c0,2,1.7,3.7,3.7,3.7
		C264,150.2,265.6,148.6,265.6,146.6z"/>
	<path class="st0" d="M243.9,141.3c-1.4-1.4-3.8-1.4-5.2,0c-1.4,1.4-1.4,3.8,0,5.2l8.3,8.3c0.7,0.7,1.7,1.1,2.6,1.1
		c0.9,0,1.9-0.3,2.6-1.1c1.4-1.4,1.4-3.8,0-5.2L243.9,141.3z"/>
	<path class="st0" d="M274.3,155.9c0.9,0,1.9-0.3,2.6-1.1l8.4-8.3c1.4-1.4,1.4-3.8,0-5.2c-1.4-1.4-3.8-1.4-5.2,0l-8.3,8.3
		c-1.4,1.4-1.4,3.8,0,5.2C272.4,155.6,273.4,155.9,274.3,155.9L274.3,155.9z"/>
</g>
</svg>
