<?xml version="1.0" encoding="utf-8"?>
<!-- Generator: Adobe Illustrator 23.0.1, SVG Export Plug-In . SVG Version: 6.00 Build 0)  -->
<svg version="1.1" id="Capa_1" xmlns="http://www.w3.org/2000/svg" xmlns:xlink="http://www.w3.org/1999/xlink" x="0px" y="0px"
	 viewBox="0 0 512 512" style="enable-background:new 0 0 512 512;" xml:space="preserve">
<style type="text/css">
	.st0{fill:#122232;}
</style>
<g>
	<path class="st0" d="M361.7,373.7h-51.1V189.4c0-2-1.7-3.7-3.7-3.7H173.8c-2,0-3.7,1.7-3.7,3.7v7.8c0,2,1.7,3.7,3.7,3.7
		s3.7-1.7,3.7-3.7v-4.2h59.2v180.6h-59.2V212.9c0-2-1.7-3.7-3.7-3.7s-3.7,1.7-3.7,3.7v160.7h-8.3V138.3h188.4v223.3
		c0,2,1.7,3.7,3.7,3.7s3.7-1.7,3.7-3.7v-227c0-2-1.7-3.7-3.7-3.7H158.2c-2,0-3.7,1.7-3.7,3.7v239h-4.2c-2,0-3.7,1.7-3.7,3.7
		s1.7,3.7,3.7,3.7h211.4c2,0,3.7-1.7,3.7-3.7S363.7,373.7,361.7,373.7L361.7,373.7z M244,193.1h59.2v180.6H244V193.1z"/>
	<path class="st0" d="M232.5,146.7c-8.5,0-15.4,6.9-15.4,15.4s6.9,15.4,15.4,15.4h15.7c8.5,0,15.4-6.9,15.4-15.4
		s-6.9-15.4-15.4-15.4H232.5z M256.3,162.1c0,4.4-3.6,8.1-8.1,8.1h-15.7c-4.4,0-8.1-3.6-8.1-8.1s3.6-8.1,8.1-8.1h15.7
		C252.7,154,256.3,157.6,256.3,162.1z"/>
	<path class="st0" d="M341.3,261.8l-7.8-11.7c-0.7-1-1.8-1.6-3-1.6s-2.4,0.6-3,1.6l-7.8,11.7c-1.1,1.7-0.7,4,1,5.1
		c1.7,1.1,4,0.7,5.1-1l4.8-7.2l4.8,7.2c0.7,1.1,1.9,1.6,3,1.6c0.7,0,1.4-0.2,2.1-0.6C341.9,265.8,342.4,263.5,341.3,261.8
		L341.3,261.8z"/>
	<path class="st0" d="M320.5,292.1c-1.7,1.1-2.1,3.4-1,5.1l7.8,11.7c0.7,1,1.8,1.6,3,1.6s2.4-0.6,3-1.6l7.8-11.7
		c1.1-1.7,0.7-4-1-5.1c-1.7-1.1-4-0.7-5.1,1l-4.8,7.2l-4.8-7.2C324.5,291.4,322.2,291,320.5,292.1L320.5,292.1z"/>
	<path class="st0" d="M334.3,283.1c2,0,3.7-1.7,3.7-3.7s-1.7-3.7-3.7-3.7h-7.8c-2,0-3.7,1.7-3.7,3.7s1.7,3.7,3.7,3.7H334.3z"/>
</g>
</svg>
