<?xml version="1.0" encoding="utf-8"?>
<!-- Generator: Adobe Illustrator 23.0.1, SVG Export Plug-In . SVG Version: 6.00 Build 0)  -->
<svg version="1.1" id="Capa_1" xmlns="http://www.w3.org/2000/svg" xmlns:xlink="http://www.w3.org/1999/xlink" x="0px" y="0px"
	 viewBox="0 0 512 512" style="enable-background:new 0 0 512 512;" xml:space="preserve">
<style type="text/css">
	.st0{fill:#122232;}
</style>
<g>
	<g>
		<path class="st0" d="M379.8,358l-52.5-85.4c-1.4-2.3-3.9-3.7-6.7-3.7c-2.7,0-5.2,1.4-6.7,3.7l-6.8,11.1c-1.1,1.7-0.5,4,1.2,5
			c1.7,1.1,4,0.5,5-1.2l6.8-11.1c0-0.1,0.1-0.2,0.4-0.2s0.4,0.2,0.4,0.2l52.5,85.4c0,0.1,0.2,0.2,0,0.5s-0.4,0.3-0.4,0.3h-29.1
			l-81.4-132.3c-0.7-1.2-1.7-2.1-2.9-2.8c0,0,0,0,0,0v-24.9c3.1,0.8,6,1.2,8.9,1.2c8.4,0,16.2-2.9,23.9-5.8
			c10.6-3.9,20.6-7.7,31.5-3.3c1.4,0.6,3,0.4,4.2-0.5c1.3-0.8,2-2.3,2-3.8v-41.4c0-1.8-1.1-3.5-2.8-4.2c-13.8-5.9-25.8-1.4-37.5,2.9
			c-10.9,4.1-21.3,7.9-32.5,2.9c-1.1-0.5-2.4-0.4-3.5,0.3c-1,0.7-1.7,1.8-1.7,3.1v0.1c-0.1,0.3-0.1,0.6-0.1,0.8v72.5
			c-1.2,0.6-2.2,1.6-2.9,2.8l-38.6,62.8l-12.6-20.5c-1.4-2.3-3.9-3.7-6.7-3.7c-2.7,0-5.2,1.4-6.7,3.7L132.2,358
			c-1.5,2.4-1.5,5.5-0.2,7.9s4,4,6.8,4h234.3c2.8,0,5.5-1.5,6.8-4C381.4,363.4,381.3,360.4,379.8,358z M259.7,159.3
			c11.9,3.3,22.5-0.7,32.9-4.5c10.2-3.8,20-7.4,30.4-3.7v35.6c-11.9-3.3-22.6,0.7-32.9,4.5c-10.2,3.8-19.9,7.4-30.3,3.7V159.3z
			 M176.5,362.6l12.6-20.5c1.1-1.7,0.5-4-1.2-5c-1.7-1.1-4-0.5-5,1.2l-14.9,24.3h-29.1c-0.1,0-0.3,0-0.4-0.3s0-0.4,0-0.5l52.5-85.4
			c0-0.1,0.1-0.2,0.4-0.2s0.4,0.2,0.4,0.2l14.6,23.7l-14.6,23.6c-1.1,1.7-0.5,4,1.2,5c1.7,1.1,4,0.5,5-1.2l57.5-93.5
			c0-0.1,0.1-0.2,0.4-0.2c0.3,0,0.4,0.2,0.4,0.2l79,128.4H176.5z"/>
	</g>
</g>
</svg>
