<?xml version="1.0" encoding="utf-8"?>
<!-- Generator: Adobe Illustrator 23.0.1, SVG Export Plug-In . SVG Version: 6.00 Build 0)  -->
<svg version="1.1" id="Capa_1" xmlns="http://www.w3.org/2000/svg" xmlns:xlink="http://www.w3.org/1999/xlink" x="0px" y="0px"
	 viewBox="0 0 512 512" style="enable-background:new 0 0 512 512;" xml:space="preserve">
<style type="text/css">
	.st0{fill:#122232;}
</style>
<g>
	<path class="st0" d="M374.9,352.1h-25.1c-2.8,0-5.1-0.6-7.2-1.9c-7.6-4.7-13.7-19.8-17.3-28.9c-0.4-1-0.8-2-1.2-3
		c-6-14.6-13.4-32.9-28.2-42.2c-6.6-4.2-14.1-6.3-22.3-6.3h-9.9V228c3.5,0,6.8-1.4,9.3-3.9c2.5-2.5,3.9-5.8,3.9-9.3
		c0-3.5-1.4-6.8-3.9-9.3l-27.3-27.2c-1.4-1.4-3.8-1.4-5.2,0c-1.4,1.4-1.4,3.8,0,5.2l27.3,27.2c1.1,1.1,1.7,2.6,1.7,4.2
		c0,1.6-0.6,3-1.7,4.2c-2.3,2.3-6,2.3-8.3,0l-53-53c-1.4-1.4-3.8-1.4-5.2,0l-53,52.9c-1.1,1.1-2.6,1.7-4.2,1.7l0,0
		c-1.6,0-3-0.6-4.2-1.7c-1.1-1.1-1.7-2.5-1.7-4.1s0.6-3,1.7-4.2l59.8-59.7c1.1-1.1,2.5-1.7,4.1-1.7l0,0c1.6,0,3,0.6,4.2,1.7
		l21.1,21.1c1.4,1.4,3.8,1.4,5.2,0s1.4-3.8,0-5.2l-21.1-21.1c-2.5-2.5-5.8-3.9-9.3-3.9l0,0c-3.5,0-6.8,1.4-9.3,3.9l-59.7,59.7
		c-2.5,2.5-3.9,5.8-3.9,9.3s1.4,6.8,3.9,9.3c2.5,2.5,5.8,3.9,9.3,3.9v64.5v78.8h-9.5c-2,0-3.7,1.7-3.7,3.7s1.7,3.7,3.7,3.7H375
		c3.3,0,6-2.7,6-6v-14.4C381,354.9,378.3,352.1,374.9,352.1z M160.3,371.2h-8.8v-75h8.8V371.2z M185.5,371.2h-17.9v-75h14.3h3.6
		V371.2z M214.9,371.2h-22.1v-11.7h22.1V371.2z M214.9,352.2h-22.1v-13.8h22.1V352.2z M214.9,331.1h-22.1v-13.8h22.1V331.1z
		 M214.9,310h-22.1v-13.8h22.1V310z M222.2,288.9h-36.7v-18.2c0-10.1,8.3-18.4,18.4-18.4s18.4,8.3,18.4,18.4L222.2,288.9
		L222.2,288.9z M240.1,371.2h-17.8v-75h3.6h14.2V371.2z M229.5,288.9v-18.2c0-14.2-11.5-25.7-25.7-25.7c-14.2,0-25.7,11.5-25.7,25.7
		v18.2H164h-12.5v-63c0.7-0.5,1.4-1,2.1-1.7l50.4-50.4l50.4,50.4c0.6,0.6,1.3,1.2,2.1,1.7v63h-12.5H229.5z M263.6,371.2V347
		c0-2-1.7-3.7-3.7-3.7s-3.7,1.7-3.7,3.7v24.2h-8.9v-75h8.9v33.9c0,2,1.7,3.7,3.7,3.7s3.7-1.7,3.7-3.7v-33.9h9.9
		c3.1,0,5.7,0.7,8.1,2.2c7.8,4.9,13.5,19.2,17.3,28.6c0.5,1.2,0.9,2.3,1.4,3.5c5.7,14,12.6,31.2,26.1,40.8L263.6,371.2L263.6,371.2z
		 M373.7,371.2h-23.9c-6.3,0-12.2-1.6-17.3-4.8c-12.8-7.9-19.4-24.3-25.3-38.7c-0.5-1.2-0.9-2.3-1.4-3.5
		c-4.2-10.3-10.4-25.8-20.2-32c-3.6-2.2-7.5-3.4-12-3.4h-9.9V277h9.9c6.8,0,13,1.8,18.4,5.2c12.8,8.2,19.4,24.5,25.3,38.9
		c0.4,1,0.8,2,1.2,3c4.2,10.5,10.6,26.4,20.3,32.3c3.3,2,6.9,3,11.1,3h23.9V371.2z"/>
	<path class="st0" d="M298.9,206.8h53.6c15.7,0,28.4-12.7,28.4-28.4s-12.7-28.4-28.4-28.4c-0.2,0-0.4,0-0.5,0
		c-5.7-10.1-16.6-16.5-28.3-16.5c-17.9,0-32.5,14.6-32.5,32.5c0,0.7,0,1.3,0,2c-7.5,3.1-12.5,10.4-12.5,18.7
		C278.8,197.7,287.8,206.8,298.9,206.8z M296,174.1c1.9-0.4,3.1-2.2,2.8-4.2c-0.2-1.3-0.3-2.7-0.3-4c0-13.9,11.3-25.2,25.2-25.2
		c9.8,0,18.7,5.7,22.9,14.6c0.7,1.4,2.1,2.2,3.7,2.1c0.8-0.1,1.6-0.1,2.3-0.1c11.6,0,21.1,9.5,21.1,21.1s-9.5,21.1-21.1,21.1h-53.7
		c-7.1,0-12.8-5.8-12.8-12.8C286.1,180.6,290.2,175.4,296,174.1L296,174.1z"/>
	<path class="st0" d="M203.9,201.6c-9,0-16.3,7.3-16.3,16.3s7.3,16.3,16.3,16.3s16.3-7.3,16.3-16.3S212.9,201.6,203.9,201.6z
		 M203.9,226.8c-4.9,0-9-4-9-9s4-9,9-9s9,4,9,9S208.8,226.8,203.9,226.8z"/>
</g>
</svg>
